<svg xmlns="http://www.w3.org/2000/svg" xmlns:xlink="http://www.w3.org/1999/xlink" width="500" zoomAndPan="magnify" viewBox="0 0 375 374.999991" height="500" preserveAspectRatio="xMidYMid meet" version="1.0"><defs><clipPath id="13004f02e3"><path d="M 22 49.492188 L 204 49.492188 L 204 325.492188 L 22 325.492188 Z M 22 49.492188 " clip-rule="nonzero"/></clipPath><clipPath id="053467dc55"><path d="M 180 49.492188 L 360.679688 49.492188 L 360.679688 325.492188 L 180 325.492188 Z M 180 49.492188 " clip-rule="nonzero"/></clipPath></defs><g clip-path="url(#13004f02e3)"><path fill="#fcdd05" d="M 62.003906 325.117188 L 60.246094 325.140625 C 58.460938 325.164062 56.679688 325.058594 54.910156 324.828125 C 53.136719 324.59375 51.390625 324.234375 49.671875 323.746094 C 47.953125 323.261719 46.277344 322.652344 44.648438 321.921875 C 43.015625 321.191406 41.445312 320.347656 39.9375 319.390625 C 38.429688 318.433594 36.996094 317.371094 35.640625 316.207031 C 34.285156 315.039062 33.023438 313.78125 31.851562 312.433594 C 30.679688 311.085938 29.609375 309.65625 28.644531 308.152344 C 27.679688 306.648438 26.828125 305.082031 26.089844 303.457031 C 25.351562 301.828125 24.738281 300.15625 24.242188 298.4375 C 23.746094 296.722656 23.378906 294.976562 23.136719 293.207031 C 22.894531 291.4375 22.78125 289.65625 22.796875 287.871094 C 22.8125 286.082031 22.957031 284.308594 23.234375 282.542969 C 23.507812 280.777344 23.90625 279.039062 24.433594 277.332031 C 24.960938 275.621094 25.605469 273.960938 26.375 272.347656 C 27.140625 270.734375 28.019531 269.183594 29.011719 267.699219 C 30.003906 266.210938 31.097656 264.804688 32.296875 263.476562 L 82.507812 207.769531 C 83.289062 206.902344 84.03125 205.996094 84.726562 205.058594 C 85.425781 204.117188 86.074219 203.148438 86.679688 202.148438 C 87.285156 201.148438 87.84375 200.121094 88.347656 199.066406 C 88.855469 198.011719 89.3125 196.9375 89.71875 195.839844 C 90.125 194.742188 90.476562 193.628906 90.777344 192.496094 C 91.074219 191.367188 91.320312 190.222656 91.511719 189.070312 C 91.703125 187.914062 91.839844 186.753906 91.917969 185.589844 C 92 184.421875 92.023438 183.253906 91.996094 182.082031 C 91.964844 180.914062 91.878906 179.75 91.738281 178.585938 C 91.597656 177.425781 91.402344 176.273438 91.148438 175.132812 C 90.898438 173.988281 90.59375 172.859375 90.238281 171.746094 C 89.878906 170.632812 89.46875 169.539062 89.007812 168.464844 C 88.546875 167.390625 88.035156 166.339844 87.472656 165.3125 C 86.914062 164.285156 86.304688 163.289062 85.648438 162.320312 C 84.992188 161.351562 84.289062 160.417969 83.546875 159.515625 C 82.800781 158.613281 82.015625 157.75 81.1875 156.921875 L 37.304688 113.039062 C 14.238281 89.972656 30.214844 50.511719 62.839844 49.992188 C 65.226562 49.953125 67.59375 50.144531 69.941406 50.566406 C 72.292969 50.984375 74.578125 51.628906 76.800781 52.492188 C 79.027344 53.355469 81.148438 54.425781 83.164062 55.699219 C 85.179688 56.972656 87.058594 58.429688 88.792969 60.066406 L 191.894531 157.425781 C 192.792969 158.273438 193.648438 159.164062 194.457031 160.097656 C 195.265625 161.035156 196.027344 162.007812 196.738281 163.015625 C 197.449219 164.027344 198.109375 165.070312 198.714844 166.148438 C 199.320312 167.226562 199.871094 168.328125 200.367188 169.460938 C 200.863281 170.59375 201.300781 171.75 201.683594 172.925781 C 202.0625 174.101562 202.382812 175.292969 202.644531 176.5 C 202.902344 177.710938 203.101562 178.929688 203.242188 180.15625 C 203.378906 181.382812 203.453125 182.617188 203.46875 183.851562 C 203.484375 185.089844 203.4375 186.324219 203.328125 187.554688 C 203.21875 188.785156 203.046875 190.007812 202.8125 191.222656 C 202.582031 192.433594 202.289062 193.636719 201.9375 194.820312 C 201.582031 196.003906 201.171875 197.167969 200.703125 198.3125 C 200.234375 199.457031 199.707031 200.570312 199.125 201.664062 C 198.542969 202.753906 197.910156 203.8125 197.222656 204.839844 C 196.535156 205.867188 195.796875 206.855469 195.007812 207.808594 C 194.222656 208.761719 193.386719 209.671875 192.507812 210.542969 L 87.464844 314.441406 C 85.785156 316.105469 83.960938 317.59375 81.992188 318.90625 C 80.027344 320.21875 77.953125 321.332031 75.769531 322.246094 C 73.589844 323.160156 71.339844 323.859375 69.027344 324.34375 C 66.710938 324.824219 64.371094 325.082031 62.003906 325.117188 Z M 62.003906 325.117188 " fill-opacity="1" fill-rule="nonzero"/></g><g clip-path="url(#053467dc55)"><path fill="#fcdd05" d="M 219.363281 325.117188 L 217.605469 325.140625 C 215.820312 325.164062 214.039062 325.058594 212.269531 324.828125 C 210.496094 324.59375 208.75 324.234375 207.03125 323.746094 C 205.3125 323.261719 203.636719 322.652344 202.003906 321.921875 C 200.375 321.191406 198.804688 320.347656 197.292969 319.390625 C 195.785156 318.433594 194.355469 317.371094 193 316.207031 C 191.644531 315.039062 190.382812 313.78125 189.210938 312.433594 C 188.035156 311.085938 186.96875 309.65625 186.003906 308.152344 C 185.039062 306.648438 184.1875 305.082031 183.449219 303.457031 C 182.710938 301.828125 182.09375 300.15625 181.597656 298.4375 C 181.105469 296.722656 180.734375 294.976562 180.492188 293.207031 C 180.253906 291.4375 180.140625 289.65625 180.15625 287.871094 C 180.171875 286.082031 180.316406 284.308594 180.589844 282.542969 C 180.863281 280.777344 181.265625 279.039062 181.792969 277.332031 C 182.316406 275.621094 182.964844 273.960938 183.730469 272.347656 C 184.5 270.734375 185.378906 269.183594 186.371094 267.699219 C 187.363281 266.210938 188.457031 264.804688 189.652344 263.476562 L 239.863281 207.769531 C 240.648438 206.902344 241.386719 205.996094 242.085938 205.058594 C 242.78125 204.117188 243.433594 203.148438 244.039062 202.148438 C 244.644531 201.148438 245.199219 200.117188 245.707031 199.066406 C 246.214844 198.011719 246.671875 196.9375 247.074219 195.839844 C 247.480469 194.742188 247.832031 193.628906 248.132812 192.496094 C 248.433594 191.367188 248.679688 190.222656 248.867188 189.070312 C 249.058594 187.914062 249.195312 186.753906 249.277344 185.585938 C 249.355469 184.421875 249.382812 183.253906 249.351562 182.082031 C 249.320312 180.914062 249.234375 179.75 249.09375 178.585938 C 248.953125 177.425781 248.757812 176.273438 248.507812 175.132812 C 248.257812 173.988281 247.953125 172.863281 247.59375 171.746094 C 247.238281 170.632812 246.828125 169.539062 246.367188 168.464844 C 245.90625 167.390625 245.394531 166.339844 244.832031 165.3125 C 244.269531 164.289062 243.660156 163.289062 243.003906 162.320312 C 242.347656 161.351562 241.648438 160.417969 240.902344 159.515625 C 240.160156 158.613281 239.371094 157.75 238.546875 156.921875 L 194.664062 113.039062 C 171.59375 89.972656 187.570312 50.511719 220.191406 49.992188 C 222.574219 49.953125 224.941406 50.144531 227.289062 50.566406 C 229.636719 50.988281 231.921875 51.628906 234.144531 52.492188 C 236.371094 53.355469 238.488281 54.425781 240.503906 55.699219 C 242.519531 56.972656 244.394531 58.429688 246.128906 60.066406 L 349.242188 157.425781 C 350.140625 158.277344 350.996094 159.167969 351.804688 160.101562 C 352.613281 161.035156 353.375 162.007812 354.085938 163.019531 C 354.796875 164.03125 355.457031 165.074219 356.066406 166.148438 C 356.671875 167.226562 357.222656 168.332031 357.71875 169.464844 C 358.214844 170.597656 358.652344 171.75 359.03125 172.925781 C 359.414062 174.101562 359.734375 175.292969 359.992188 176.503906 C 360.253906 177.710938 360.453125 178.929688 360.589844 180.15625 C 360.730469 181.386719 360.804688 182.617188 360.820312 183.855469 C 360.835938 185.089844 360.785156 186.324219 360.675781 187.554688 C 360.566406 188.785156 360.398438 190.007812 360.164062 191.222656 C 359.933594 192.4375 359.640625 193.636719 359.289062 194.820312 C 358.933594 196.007812 358.523438 197.171875 358.054688 198.3125 C 357.585938 199.457031 357.058594 200.574219 356.476562 201.664062 C 355.894531 202.753906 355.261719 203.8125 354.574219 204.839844 C 353.886719 205.867188 353.148438 206.859375 352.359375 207.8125 C 351.574219 208.765625 350.738281 209.675781 349.859375 210.542969 L 244.816406 314.445312 C 243.136719 316.105469 241.3125 317.59375 239.347656 318.90625 C 237.378906 320.21875 235.304688 321.332031 233.125 322.246094 C 230.945312 323.160156 228.695312 323.859375 226.382812 324.339844 C 224.066406 324.824219 221.726562 325.082031 219.363281 325.117188 Z M 219.363281 325.117188 " fill-opacity="1" fill-rule="nonzero"/></g></svg>